<?xml version="1.0" encoding="UTF-8"?>
<svg xmlns="http://www.w3.org/2000/svg" viewBox="0 0 256 256" width="256" height="256">
  <defs>
    <linearGradient id="gShirt" x1="0" y1="0" x2="1" y2="1">
      <stop offset="0%" stop-color="#FF3B30"/>
      <stop offset="100%" stop-color="#FF6F1E"/>
    </linearGradient>
    <filter id="neon" x="-50%" y="-50%" width="200%" height="200%">
      <feGaussianBlur stdDeviation="2" result="blur"/>
      <feMerge>
        <feMergeNode in="blur"/>
        <feMergeNode in="SourceGraphic"/>
      </feMerge>
    </filter>
  </defs>
  <g fill="none" stroke-width="0">
    <!-- Shirt body -->
    <path d="M88 30c12 6 24 9 40 9s28-3 40-9l30 12c7 10 14 18 22 30l-20 16c-8-10-14-18-22-28l-10 4c8 42 8 80 6 126-18 8-36 12-56 12s-38-4-56-12c-2-46-2-84 6-126l-10-4c-8 10-14 18-22 28l-20-16c8-12 15-20 22-30l30-12z" fill="url(#gShirt)" filter="url(#neon)"/>
    <!-- Gold band -->
    <rect x="60" y="104" width="136" height="28" rx="6" fill="#FFB400"/>
    <!-- Collar -->
    <path d="M104 34c8 4 16 6 24 6s16-2 24-6l-6 16c-10 4-26 4-36 0l-6-16z" fill="#2C2C2C"/>
    <!-- Left arrow (red) -->
    <g transform="translate(20,150)" fill="#FF3B30">
      <path d="M44 0c-20 0-36 16-36 36 0 6 1 11 4 16l-10 4C-1 50-4 43-4 36-4 16 12 0 32 0h12z"/>
      <path d="M16 40l28-8-12-12 36-4-16 34-8-12-28 2z"/>
    </g>
    <!-- Right arrow (gold) -->
    <g transform="translate(160,150)" fill="#FFB400">
      <path d="M12 0h12c20 0 36 16 36 36 0 7-3 14-8 20l-10-4c3-5 4-10 4-16 0-20-16-36-36-36z"/>
      <path d="M48 40l-28-8 12-12-36-4 16 34 8-12 28 2z"/>
    </g>
  </g>
</svg>


